<svg xmlns="http://www.w3.org/2000/svg" xmlns:xlink="http://www.w3.org/1999/xlink" width="19" height="22" viewBox="0 0 19 22"><defs><path id="7xpka" d="M39.165 210.257h-2.9a.898.898 0 0 1-.626-.259l-.026-.021a.915.915 0 0 1-.233-.605v-2.895l3.785 3.78zm.833.984v11.872c0 .15-.07.289-.16.388l-.008.009a.547.547 0 0 1-.389.155H25.188a.558.558 0 0 1-.393-.16v-.004a.53.53 0 0 1-.16-.388v-16.917c0-.15.056-.289.16-.392.1-.1.242-.164.393-.164H34.4v3.732c0 .501.194.954.513 1.29l.035.031a1.86 1.86 0 0 0 1.316.548zm-12.843 8.523l3.776-3.785 2.391 2.395.035.03a.482.482 0 0 0 .69 0l4.13-4.125a.498.498 0 0 0 0-.69.492.492 0 0 0-.7 0l-3.775 3.775-2.404-2.399-.021-.03a.504.504 0 0 0-.695 0l-4.13 4.13a.508.508 0 0 0 0 .699c.194.19.51.19.703 0zM25.188 204c-.604 0-1.152.25-1.55.651-.396.389-.638.941-.638 1.545v16.917c0 .604.242 1.156.638 1.549a2.19 2.19 0 0 0 1.55.647H39.44c.591 0 1.13-.246 1.528-.63l.017-.017.009-.005c.392-.397.638-.945.638-1.544v-12.364a.817.817 0 0 0-.237-.578l-5.925-5.925a.819.819 0 0 0-.582-.246h-9.701z"/></defs><g><g transform="translate(-23 -204)"><use fill="#2f6068" xlink:href="#7xpka"/></g></g></svg>