<svg xmlns="http://www.w3.org/2000/svg" xmlns:xlink="http://www.w3.org/1999/xlink" width="17" height="19" viewBox="0 0 17 19"><defs><path id="k64ba" d="M1234.986 751.131a.763.763 0 0 0-.763.762c0 3.78-3.073 6.85-6.85 6.85a6.856 6.856 0 0 1-6.849-6.85 6.858 6.858 0 0 1 6.85-6.85c2.281 0 4.319 1.145 5.563 3.044h-4.801a.763.763 0 0 0 0 1.525H1234.227c.052 0 .108-.023.16-.034.045-.011.096-.011.137-.03h.004c.026-.01.045-.033.067-.048a.736.736 0 0 0 .17-.119c.034-.037.057-.078.083-.119.026-.04.06-.078.078-.126.026-.064.033-.134.04-.2.004-.03.02-.057.02-.086v-6.088a.76.76 0 0 0-.763-.762.76.76 0 0 0-.762.762v3.5a8.06 8.06 0 0 0-6.087-2.743c-4.617 0-8.374 3.759-8.374 8.374 0 4.617 3.757 8.374 8.374 8.374 4.615 0 8.374-3.757 8.374-8.374a.764.764 0 0 0-.763-.762z"/></defs><g><g transform="translate(-1219 -742)"><use fill="#fff" xlink:href="#k64ba"/></g></g></svg>