<svg xmlns="http://www.w3.org/2000/svg" xmlns:xlink="http://www.w3.org/1999/xlink" width="24" height="24" viewBox="0 0 24 24"><defs><path id="odjda" d="M41.378 307.423a.322.322 0 0 1-.32.322H39.58l-.075.317a8.546 8.546 0 0 1-1.074 2.595l-.172.277 1.043 1.044a.318.318 0 0 1 0 .454l-1.87 1.87a.32.32 0 0 1-.454 0l-1.044-1.043-.277.172c-.803.5-1.676.861-2.595 1.074l-.317.075v1.477a.322.322 0 0 1-.321.321h-2.648a.322.322 0 0 1-.322-.32v-1.478l-.317-.075a8.515 8.515 0 0 1-2.593-1.074l-.277-.172-1.044 1.044a.323.323 0 0 1-.456 0l-1.87-1.871a.323.323 0 0 1 0-.454l1.043-1.044-.172-.277a8.55 8.55 0 0 1-1.074-2.595l-.074-.317h-1.478a.32.32 0 0 1-.319-.322v-2.647a.32.32 0 0 1 .32-.321h1.477l.074-.318a8.56 8.56 0 0 1 1.074-2.593l.172-.277-1.043-1.044a.324.324 0 0 1 0-.455l1.87-1.871a.323.323 0 0 1 .456 0l1.044 1.043.277-.172a8.527 8.527 0 0 1 2.593-1.074l.317-.074v-1.478a.32.32 0 0 1 .322-.319h2.648a.32.32 0 0 1 .32.32v1.477l.318.074c.92.215 1.792.574 2.595 1.074l.277.172 1.044-1.043a.32.32 0 0 1 .454 0l1.87 1.87a.32.32 0 0 1 0 .456l-1.043 1.044.172.277c.5.8.862 1.674 1.074 2.593l.075.318h1.477c.176 0 .321.144.321.321zm-.32-3.79h-.83a9.428 9.428 0 0 0-.93-2.243l.587-.587c.214-.215.333-.503.333-.807 0-.307-.119-.594-.333-.808l-1.873-1.873a1.17 1.17 0 0 0-1.616 0l-.586.586a9.365 9.365 0 0 0-2.245-.928v-.83c0-.631-.511-1.143-1.141-1.143h-2.648c-.63 0-1.142.512-1.142 1.142v.831a9.373 9.373 0 0 0-2.244.928l-.587-.586a1.17 1.17 0 0 0-1.616 0l-1.872 1.873a1.139 1.139 0 0 0-.334.808c0 .306.119.592.334.807l.586.587a9.315 9.315 0 0 0-.928 2.244h-.83c-.631 0-1.143.511-1.143 1.142v2.647c0 .631.512 1.143 1.142 1.143h.831a9.35 9.35 0 0 0 .928 2.244l-.586.586a1.143 1.143 0 0 0-.334.81c0 .304.119.591.334.808l1.872 1.871a1.171 1.171 0 0 0 1.616 0l.587-.586a9.49 9.49 0 0 0 2.244.929v.83c0 .63.512 1.141 1.142 1.141h2.648c.63 0 1.141-.512 1.141-1.142v-.83a9.455 9.455 0 0 0 2.245-.928l.586.586c.431.431 1.184.431 1.618 0l1.87-1.871a1.145 1.145 0 0 0 0-1.618l-.585-.586a9.463 9.463 0 0 0 .929-2.244h.83c.63 0 1.141-.512 1.141-1.143v-2.647c0-.63-.512-1.142-1.142-1.142z"/></defs><g><g transform="translate(-19 -294)"><use fill="#2f6068" xlink:href="#odjda"/><use fill="#fff" fill-opacity="0" stroke="#2f6068" stroke-miterlimit="50" stroke-width=".5" xlink:href="#odjda"/></g></g></svg>