<svg xmlns="http://www.w3.org/2000/svg" xmlns:xlink="http://www.w3.org/1999/xlink" width="19" height="19" viewBox="0 0 19 19"><defs><path id="ycxqa" d="M29.228 171.325c0 .1.041.186.101.253h.004a.368.368 0 0 0 .504 0 .361.361 0 0 0 .101-.253c0-.101-.037-.187-.1-.25v-.008a.37.37 0 0 0-.255-.098.367.367 0 0 0-.25.098l-.004.007c-.06.064-.1.15-.1.25zm-.497.852a1.197 1.197 0 0 1 0-1.705v-.003c.22-.22.527-.352.852-.352.333 0 .636.131.856.352v.003c.217.217.355.524.355.853 0 .332-.138.63-.355.852v.003a1.22 1.22 0 0 1-.856.355c-.332 0-.631-.138-.852-.355zm3.771 2.362c0 .097.041.19.101.25l.004.004c.06.063.153.1.25.1.101 0 .19-.037.254-.1v-.004a.36.36 0 0 0 0-.505.356.356 0 0 0-.254-.1.347.347 0 0 0-.25.1h-.004a.373.373 0 0 0-.1.255zm-.852 0c0-.33.135-.636.355-.856a1.216 1.216 0 0 1 1.708 0c.217.22.355.523.355.856a1.213 1.213 0 0 1-1.21 1.207c-.33 0-.632-.134-.853-.355a1.197 1.197 0 0 1-.355-.852zm.852-3.214c0 .1.041.186.101.253h.004c.06.06.153.101.25.101.101 0 .19-.04.254-.1a.364.364 0 0 0 .105-.254.35.35 0 0 0-.105-.25v-.008a.369.369 0 0 0-.254-.098.36.36 0 0 0-.25.098l-.004.007c-.06.064-.1.15-.1.25zm-.497.852a1.198 1.198 0 0 1 0-1.705v-.003c.22-.22.523-.352.852-.352.333 0 .636.131.856.352v.003c.217.217.355.524.355.853 0 .332-.138.63-.355.852v.003a1.22 1.22 0 0 1-.856.355c-.329 0-.631-.138-.852-.355zm-6.05 2.362c0 .097.037.19.1.25l.004.004c.06.063.153.1.25.1s.19-.037.254-.1v-.004c.068-.06.101-.153.101-.25a.341.341 0 0 0-.1-.255.362.362 0 0 0-.255-.1.347.347 0 0 0-.25.1h-.004a.356.356 0 0 0-.1.255zm-.853 0a1.209 1.209 0 0 1 1.207-1.207c.33 0 .636.134.856.351.217.22.351.523.351.856a1.21 1.21 0 0 1-1.207 1.207c-.332 0-.631-.134-.852-.355a1.197 1.197 0 0 1-.355-.852zm.852-3.214c0 .1.038.186.101.253h.004a.36.36 0 0 0 .25.101c.097 0 .19-.04.254-.1a.346.346 0 0 0 .101-.254c0-.101-.033-.187-.1-.25v-.008a.376.376 0 0 0-.505 0l-.004.007a.346.346 0 0 0-.1.25zm-.497.852a1.197 1.197 0 0 1 0-1.705v-.003a1.21 1.21 0 0 1 1.708 0v.003a1.21 1.21 0 0 1 0 1.705v.003c-.22.217-.527.355-.856.355-.332 0-.631-.138-.852-.355zm3.771 2.362c0 .097.041.19.101.25l.004.004c.063.063.153.1.25.1.101 0 .19-.037.254-.1v-.004c.064-.06.101-.153.101-.25a.356.356 0 0 0-.1-.255.356.356 0 0 0-.255-.1.353.353 0 0 0-.25.1h-.004a.373.373 0 0 0-.1.255zm-.852 0c0-.33.135-.636.355-.856a1.217 1.217 0 0 1 1.708 0c.217.22.355.523.355.856a1.213 1.213 0 0 1-1.21 1.207 1.21 1.21 0 0 1-1.208-1.207zm7.4-3.214c0 .1.041.186.105.253a.368.368 0 0 0 .505 0 .364.364 0 0 0 .104-.253.35.35 0 0 0-.105-.25v-.008a.367.367 0 0 0-.25-.098.37.37 0 0 0-.254.098v.007a.35.35 0 0 0-.105.25zm-.497.852c-.22-.221-.351-.52-.351-.852 0-.33.13-.636.351-.853v-.003c.22-.22.523-.352.856-.352.329 0 .632.131.852.352v.003a1.198 1.198 0 0 1 0 1.705v.003c-.22.217-.523.355-.852.355a1.22 1.22 0 0 1-.856-.355zm.497-4.067a.358.358 0 0 0 .359.36.36.36 0 0 0 .25-.11.356.356 0 0 0 .105-.25.357.357 0 0 0-.105-.25.346.346 0 0 0-.505 0 .357.357 0 0 0-.104.25zm-.497.856a1.202 1.202 0 0 1-.351-.856c0-.332.13-.631.351-.848v-.004c.22-.217.523-.359.856-.359.329 0 .632.142.852.36v.003c.22.217.355.516.355.848 0 .333-.134.636-.355.86-.217.213-.52.347-.852.347-.333 0-.635-.134-.856-.347zm3.745-4.257v-3.293H37.63v1.058a.713.713 0 0 1-.71.714.715.715 0 0 1-.71-.714v-1.058h-2.381v1.058a.712.712 0 0 1-.706.714.713.713 0 0 1-.71-.714v-1.058h-2.381v1.058a.713.713 0 0 1-.71.714.712.712 0 0 1-.707-.714v-1.058h-2.38v1.058a.713.713 0 0 1-.71.714.713.713 0 0 1-.71-.714v-1.058H23.42v3.293zm0 .849H23.42v11.47h15.604zm1.424-4.848v17.028c0 .392-.321.71-.714.71H22.706a.709.709 0 0 1-.706-.71V160.71c0-.393.318-.71.706-.71h17.028c.393 0 .714.317.714.71zm-11.119 7.15a.37.37 0 0 0-.1.25c0 .101.04.191.1.254a.39.39 0 0 0 .254.105c.101 0 .19-.045.254-.108a.353.353 0 0 0 .101-.25.354.354 0 0 0-.1-.251.346.346 0 0 0-.505 0zm-.598 1.106a1.206 1.206 0 0 1-.355-.856c0-.332.135-.631.355-.848v-.004a1.23 1.23 0 0 1 .852-.359c.333 0 .636.142.856.36v.003c.217.217.355.516.355.848 0 .333-.138.636-.355.86a1.226 1.226 0 0 1-1.708 0zm3.771-.856c0 .101.041.191.101.254.064.06.157.105.254.105a.362.362 0 0 0 .359-.359.357.357 0 0 0-.105-.25.346.346 0 0 0-.254-.109c-.097 0-.19.041-.25.109h-.004a.37.37 0 0 0-.1.25zm-.497.856a1.206 1.206 0 0 1-.355-.856c0-.332.135-.631.355-.848v-.004c.22-.217.523-.359.852-.359.333 0 .636.142.856.36v.003c.217.217.355.516.355.848 0 .333-.138.636-.355.86a1.225 1.225 0 0 1-1.708 0z"/></defs><g><g transform="translate(-22 -160)"><use fill="#2f6068" xlink:href="#ycxqa"/></g></g></svg>