<svg xmlns="http://www.w3.org/2000/svg" xmlns:xlink="http://www.w3.org/1999/xlink" width="19" height="19" viewBox="0 0 19 19"><defs><path id="2j6ba" d="M37.332 119.54h-3.703a.426.426 0 1 0 0 .852h3.703a.425.425 0 0 0 0-.852zm0 7.665h-3.703a.426.426 0 0 0-.426.426c0 .235.19.422.426.422h3.703a.425.425 0 0 0 0-.848zm0 1.7h-3.703a.428.428 0 0 0-.426.426c0 .235.19.422.426.422h3.703a.422.422 0 0 0 .422-.422.427.427 0 0 0-.422-.426zM26.54 118.117v1.423h-1.42a.426.426 0 1 0 0 .852h1.42v1.424a.426.426 0 1 0 .852 0v-1.423h1.424a.426.426 0 1 0 0-.853h-1.424v-1.423a.428.428 0 0 0-.426-.426.428.428 0 0 0-.426.426zm1.435 8.751l-1.009 1.01-1.005-1.01a.428.428 0 0 0-.602 0 .433.433 0 0 0 0 .606l1.006 1.009-1.006 1a.429.429 0 0 0 0 .603.422.422 0 0 0 .602 0l1.005-1.002 1.01 1.002a.424.424 0 0 0 .602-.598l-1.01-1.005 1.009-1.01a.433.433 0 0 0 0-.605.428.428 0 0 0-.602 0zm-4.555-3.071v-7.377h7.38v7.377zm0 8.228v-7.377h7.38v7.377zm15.605-7.377v7.377h-7.377v-7.377zm0-8.228v7.377h-7.377v-7.377zM22.714 115a.711.711 0 0 0-.714.714v17.021c0 .396.318.714.714.714h17.024c.389 0 .71-.318.71-.714v-17.021a.713.713 0 0 0-.71-.714z"/></defs><g><g transform="translate(-22 -115)"><use fill="#c34e31" xlink:href="#2j6ba"/></g></g></svg>