<?xml version="1.0" standalone="no"?>
<!DOCTYPE svg PUBLIC "-//W3C//DTD SVG 20010904//EN"
 "http://www.w3.org/TR/2001/REC-SVG-20010904/DTD/svg10.dtd">
<svg version="1.0" xmlns="http://www.w3.org/2000/svg"
 width="136.000000pt" height="136.000000pt" viewBox="0 0 136.000000 136.000000"
 preserveAspectRatio="xMidYMid meet">
<metadata>
Created by potrace 1.11, written by Peter Selinger 2001-2013
</metadata>
<g transform="translate(0.000000,136.000000) scale(0.100000,-0.100000)"
fill="#000000" stroke="none">
<path d="M379 1327 c-19 -12 -44 -42 -57 -67 l-22 -45 0 -530 c1 -567 2 -579
52 -632 29 -31 47 -41 88 -48 49 -9 111 26 140 78 23 39 24 51 23 167 -2 114
8 190 25 190 30 -1 45 -34 113 -240 62 -188 78 -213 123 -192 13 6 25 19 28
29 6 22 -97 347 -129 408 -28 53 -63 85 -105 94 -44 10 -72 2 -106 -31 -41
-39 -54 -93 -53 -234 1 -134 -7 -164 -47 -164 -15 0 -26 9 -34 28 -14 35 -20
1022 -7 1069 16 50 56 54 78 7 6 -14 11 -69 11 -123 0 -54 3 -112 6 -130 13
-65 92 -107 153 -81 44 18 80 55 151 155 73 102 78 108 105 122 29 15 45 5 45
-28 0 -39 -17 -71 -113 -210 -62 -91 -78 -121 -72 -138 8 -27 47 -47 68 -35
23 13 166 220 193 279 33 72 37 122 13 171 -43 91 -166 95 -242 9 -9 -11 -46
-61 -81 -111 -72 -101 -89 -119 -110 -111 -11 4 -13 28 -12 104 2 113 -6 155
-40 201 -49 64 -124 80 -185 39z"/>
</g>
</svg>
